:version 1.10
:name ASF
:units
  mass 1
  length 1
  angle deg
:documentation
  ASF file generated by Kaydara
:root
  axis xyz
  order  tx ty tz rx ry rz
  position 0 0 0
  orientation 0 0 0
:bonedata
  begin
    id 1
    name RightUpLegDummy
    direction -0.718183 -0.695806 0.00816078
    length 4.904
    axis 0 0 0 xyz
  end
  begin
    id 2
    name RightUpLeg
    direction -0.0736652 -0.994202 0.0783343
    length 17.4976
    axis -2.72909 -3.00389 -4.00133 xyz
    dof rx ry rz
  end
  begin
    id 3
    name RightLeg
    direction -0.0389037 -0.994596 -0.0962598
    length 16.5821
    axis 3.95836 -18.5909 -4.46993 xyz
    dof rx ry rz
  end
  begin
    id 4
    name RightFoot
    direction -0.311643 -0.412678 0.855906
    length 3.77069
    axis -1.99483 -18.8351 -3.27644 xyz
    dof rx ry rz
  end
  begin
    id 5
    name RightToes
    direction -0.317852 0.0389852 0.947339
    length 3.85082
    axis -2.00228 -18.1713 -3.25211 xyz
    dof rx ry rz
  end
  begin
    id 6
    name SpineDummy
    direction 8.3039e-015 1 4.44677e-016
    length 4.6813
    axis 0 0 0 xyz
  end
  begin
    id 7
    name Spine
    direction -0.000262373 0.999988 0.00493267
    length 10.1015
    axis -0.00246081 0.00062579 0.0150362 xyz
    dof rx ry rz
  end
  begin
    id 8
    name Spine1
    direction 0 0 0
    length 0
    axis -0.00349562 0.000650293 0.0196666 xyz
    dof rx ry rz
  end
  begin
    id 9
    name HEadDummy
    direction -0.000343232 0.999999 0.00123745
    length 3.43865
    axis -0.00349562 0.000650293 0.0196666 xyz
  end
  begin
    id 10
    name HEad
    direction -0.0461221 0.980933 0.188796
    length 5.12695
    axis -0.00351404 -7.04812 0.0199272 xyz
    dof rx ry rz
  end
  begin
    id 11
    name LeftShoulder1Dummy
    direction 0.998904 -0.0399089 -0.0244534
    length 3.5433
    axis -0.00349562 0.000650293 0.0196666 xyz
  end
  begin
    id 12
    name LeftShoulder1
    direction 0.99951 1.64443e-005 0.0312999
    length 4.05031
    axis -0.00349562 0.000650293 0.0196666 xyz
    dof rx ry rz
  end
  begin
    id 13
    name LeftArm
    direction 0.984791 0.0515299 0.165927
    length 12.9126
    axis -64.823 -10.7743 5.20463 xyz
    dof rx ry rz
  end
  begin
    id 14
    name LeftForeArm
    direction 0.984968 0.0534808 0.16425
    length 10.8596
    axis -30.0462 -7.70601 1.87451 xyz
    dof rx ry rz
  end
  begin
    id 15
    name LeftHand
    direction 0.975871 0.0289682 0.216418
    length 6.62295
    axis -20.1348 -6.98077 1.86072 xyz
    dof rx ry rz
  end
  begin
    id 16
    name RightShoulderDummy
    direction -0.998877 -0.0405946 -0.0244307
    length 3.5433
    axis -0.00349562 0.000650293 0.0196666 xyz
  end
  begin
    id 17
    name RightShoulder
    direction -0.998933 -0.0249743 -0.0388558
    length 4.05031
    axis -0.0205316 -4.02113 1.41395 xyz
    dof rx ry rz
  end
  begin
    id 18
    name RightArm
    direction -0.997559 0.068664 0.0127103
    length 12.9638
    axis -67.3882 1.84188 -6.15987 xyz
    dof rx ry rz
  end
  begin
    id 19
    name RightForeArm
    direction -0.991508 0.0912848 0.0926241
    length 10.8312
    axis -22.1975 3.41087 -4.28711 xyz
    dof rx ry rz
  end
  begin
    id 20
    name RightHand
    direction -0.989262 0.0600788 0.133232
    length 6.57864
    axis -12.2911 2.17515 -4.39675 xyz
    dof rx ry rz
  end
  begin
    id 21
    name LeftUpLegDummy
    direction 0.718183 -0.695806 0.00816078
    length 4.904
    axis 0 0 0 xyz
  end
  begin
    id 22
    name LeftUpLeg
    direction 0.0831398 -0.99469 0.0606531
    length 17.4976
    axis -1.71016 2.29552 4.63832 xyz
    dof rx ry rz
  end
  begin
    id 23
    name LeftLeg
    direction 0.0498442 -0.991778 -0.117862
    length 16.5821
    axis 5.13757 15.5727 5.13348 xyz
    dof rx ry rz
  end
  begin
    id 24
    name LeftFoot
    direction 0.269026 -0.433896 0.85986
    length 3.77069
    axis -0.576502 15.6961 4.10267 xyz
    dof rx ry rz
  end
  begin
    id 25
    name LeftToes
    direction 0.277311 0.0251143 0.960452
    length 3.85048
    axis -0.576502 15.6961 4.10267 xyz
    dof rx ry rz
  end
:hierarchy
  begin
    root RightUpLegDummy SpineDummy LeftUpLegDummy
    RightUpLegDummy RightUpLeg
    RightUpLeg RightLeg
    RightLeg RightFoot
    RightFoot RightToes
    SpineDummy Spine
    Spine Spine1
    Spine1 HEadDummy LeftShoulder1Dummy RightShoulderDummy
    HEadDummy HEad
    LeftShoulder1Dummy LeftShoulder1
    LeftShoulder1 LeftArm
    LeftArm LeftForeArm
    LeftForeArm LeftHand
    RightShoulderDummy RightShoulder
    RightShoulder RightArm
    RightArm RightForeArm
    RightForeArm RightHand
    LeftUpLegDummy LeftUpLeg
    LeftUpLeg LeftLeg
    LeftLeg LeftFoot
    LeftFoot LeftToes
  end

:SAMPLES-PER-SECOND 30
:FULLY-SPECIFIED
:DEGREES
62
root  -8.58791 47.6202 43.2093 5.77816 -9.18152 0.578657
RightUpLeg  -41.5383 -5.40189 7.33749
RightLeg  70.9933 13.4825 -9.11233
RightFoot  4.49985 0.123636 -0.913031
RightToes  -5.82073e-011 -3.18055e-015 -2.98177e-016
Spine  21.749 -1.50189 4.98375
Spine1  -13.7809 -1.25449 -0.589528
HEad  -27.9064 5.94946 -1.14826
LeftShoulder1  -3.88251e-019 9.70628e-020 -3.87848e-018
LeftArm  -2.11037 58.9044 -55.5705
LeftForeArm  -30.0911 -27.9219 3.91483
LeftHand  -1.97702 -7.43623 18.6431
RightShoulder  7.01188 10.3276 33.3357
RightArm  31.5531 -46.2597 7.29349
RightForeArm  4.06813 31.3146 -17.1337
RightHand  -2.81741 9.15999 -22.171
LeftUpLeg  -51.2656 0.235938 -5.2233
LeftLeg  86.4824 -13.4741 13.9481
LeftFoot  12.7668 -0.983625 4.47996
LeftToes  5.79026e-011 9.70705e-012 -3.73859e-011
63
root  -8.48146 46.3778 43.8627 5.42323 -9.58305 0.201007
RightUpLeg  -33.0999 -5.62579 6.46866
RightLeg  48.5865 12.9436 -4.56898
RightFoot  14.6265 -0.202587 0.614025
RightToes  -5.82073e-011 -3.18055e-015 -2.98177e-016
Spine  16.0565 -0.942072 5.95559
Spine1  -8.24798 -0.843277 0.485045
HEad  -25.1118 6.47455 -2.17407
LeftShoulder1  -3.88251e-019 9.70628e-020 -3.87848e-018
LeftArm  0.671272 61.4603 -54.2824
LeftForeArm  -24.0436 -30.5255 5.58267
LeftHand  -2.04891 -9.58894 16.469
RightShoulder  6.94788 10.2076 33.2632
RightArm  33.3918 -47.0347 4.55977
RightForeArm  1.34636 30.1218 -16.3037
RightHand  -2.85556 8.73755 -23.1035
LeftUpLeg  -42.9886 3.00728 -4.71475
LeftLeg  68.5188 -9.89011 11.7759
LeftFoot  15.8542 -0.304119 1.33262
LeftToes  5.79026e-011 9.70705e-012 -3.73859e-011
64
root  -8.45639 44.4284 44.5495 5.31846 -10.0036 0.999336
RightUpLeg  -26.3222 -4.72714 4.60378
RightLeg  31.5892 15.3824 -1.13451
RightFoot  18.9052 -0.333213 0.924211
RightToes  -5.82073e-011 -3.18055e-015 -2.98177e-016
Spine  9.09805 -0.0820979 4.56261
Spine1  -2.56837 -0.414875 1.62768
HEad  -21.1807 6.72171 -2.72917
LeftShoulder1  -3.88251e-019 9.70628e-020 -3.87848e-018
LeftArm  4.63141 63.3396 -51.5839
LeftForeArm  -16.9024 -32.5756 6.36373
LeftHand  -2.04738 -10.8014 15.2329
RightShoulder  6.59665 9.90453 32.0576
RightArm  35.3066 -49.3985 1.17662
RightForeArm  -0.215447 30.9679 -16.7202
RightHand  -2.81723 8.46395 -23.2305
LeftUpLeg  -35.1674 5.46141 -5.04148
LeftLeg  50.9669 -7.16522 9.67171
LeftFoot  16.3794 -0.00797282 0.206988
LeftToes  5.79026e-011 9.70705e-012 -3.73859e-011
65
root  -8.40203 41.8139 45.0552 4.97739 -10.5422 1.32945
RightUpLeg  -22.8103 -2.43365 3.16467
RightLeg  26.6555 18.2591 0.589272
RightFoot  10.6692 -0.236771 0.74976
RightToes  -5.82073e-011 -3.18055e-015 -2.98177e-016
Spine  5.68848 0.255736 4.10481
Spine1  -1.47107 -0.152742 2.05851
HEad  -17.3553 6.76978 -2.5379
LeftShoulder1  -3.88251e-019 9.70628e-020 -3.87848e-018
LeftArm  13.3199 65.4421 -45.2222
LeftForeArm  -12.7188 -36.2383 7.63654
LeftHand  -1.68872 -10.7537 12.6862
RightShoulder  6.08108 9.43977 30.2625
RightArm  38.1898 -52.908 -3.53808
RightForeArm  -0.445789 33.3942 -18.1988
RightHand  -2.66809 8.79333 -21.5561
LeftUpLeg  -28.3513 5.08867 -4.18287
LeftLeg  38.6084 -5.82005 7.61119
LeftFoot  10.4003 0.274564 -1.27519
LeftToes  5.79026e-011 9.70705e-012 -3.73859e-011
66
root  -8.25877 39.047 45.1497 4.01288 -11.1858 0.846403
RightUpLeg  -23.445 -0.00741656 3.04305
RightLeg  33.6339 17.5993 0.357481
RightFoot  -6.85669 0.0816843 -1.53761
RightToes  -5.82073e-011 -3.18055e-015 -2.98177e-016
Spine  7.52987 0.000817573 4.54671
Spine1  -3.7555 -0.298848 2.84
HEad  -17.3745 7.61286 -2.49184
LeftShoulder1  -3.88251e-019 9.70628e-020 -3.87848e-018
LeftArm  19.2427 65.7612 -40.8334
LeftForeArm  -9.13132 -38.1419 8.47336
LeftHand  -1.49815 -10.5571 11.4373
RightShoulder  6.03937 9.27442 30.3798
RightArm  37.7918 -53.001 -4.96607
RightForeArm  1.26431 33.8419 -18.5813
RightHand  -2.61531 9.30489 -20.4248
LeftUpLeg  -24.9104 1.32608 -2.54808
LeftLeg  36.7056 -4.05198 8.74671
LeftFoot  -3.54476 0.256987 -3.13279
LeftToes  5.79026e-011 9.70705e-012 -3.73859e-011
67
root  -8.09608 36.6221 44.8729 2.55317 -11.7469 0.728438
RightUpLeg  -27.6384 1.46637 3.32731
RightLeg  45.7629 14.632 -2.27187
RightFoot  -21.3995 -0.133916 -3.25614
RightToes  -5.82073e-011 -3.18055e-015 -2.98177e-016
Spine  11.6127 -0.47053 3.29842
Spine1  -5.08912 -0.887247 4.91751
HEad  -22.045 9.33996 -3.32346
LeftShoulder1  -3.88251e-019 9.70628e-020 -3.87848e-018
LeftArm  13.0518 63.2903 -45.9012
LeftForeArm  -6.54499 -33.5262 6.80733
LeftHand  -1.7861 -10.01 14.0633
RightShoulder  6.65478 9.7013 32.8135
RightArm  29.0924 -48.3118 1.14146
RightForeArm  4.966 28.4193 -15.3098
RightHand  -2.61385 8.90929 -20.9886
LeftUpLeg  -26.3872 -1.55777 -2.34731
LeftLeg  44.7351 -2.8927 12.5369
LeftFoot  -18.9005 -0.241696 -3.87422
LeftToes  5.79026e-011 9.70705e-012 -3.73859e-011
68
root  -7.97783 35.0993 44.5525 0.906105 -11.8741 1.06534
RightUpLeg  -32.0011 2.15763 3.41211
RightLeg  55.597 13.0915 -5.27287
RightFoot  -26.2096 -0.187891 -2.3759
RightToes  -5.82073e-011 -3.18055e-015 -2.98177e-016
Spine  14.8917 -0.789499 1.79362
Spine1  -4.67068 -1.49088 6.711
HEad  -27.0532 10.4285 -4.294
LeftShoulder1  -3.88251e-019 9.70628e-020 -3.87848e-018
LeftArm  -4.50253 58.6954 -55.3476
LeftForeArm  -4.79623 -23.7444 2.41566
LeftHand  -1.89617 -7.72454 17.4807
RightShoulder  7.33397 10.2666 35.1378
RightArm  13.6293 -42.5504 10.2173
RightForeArm  10.0034 18.1877 -9.98194
RightHand  -2.16754 6.98229 -19.9874
LeftUpLeg  -29.3404 -1.76988 -3.06863
LeftLeg  53.4772 -3.74446 15.614
LeftFoot  -26.4178 -0.5707 -4.30427
LeftToes  5.79026e-011 9.70705e-012 -3.73859e-011
69
root  -7.91393 34.8772 44.3845 -0.378692 -11.3653 1.19412
RightUpLeg  -32.5728 1.64927 3.43299
RightLeg  57.9498 13.1793 -5.67455
RightFoot  -24.7401 -0.0774767 -1.58454
RightToes  -5.82073e-011 -3.18055e-015 -2.98177e-016
Spine  16.1708 -1.19291 2.65421
Spine1  -4.31245 -1.66763 5.83891
HEad  -28.0645 9.64963 -4.20022
LeftShoulder1  -3.88251e-019 9.70628e-020 -3.87848e-018
LeftArm  -24.435 54.7254 -62.3911
LeftForeArm  -4.41725 -16.1338 -0.922767
LeftHand  -1.44477 -4.44182 17.8163
RightShoulder  7.59588 10.5196 35.8999
RightArm  -1.29957 -40.3414 17.0839
RightForeArm  14.0935 9.57555 -7.36578
RightHand  -1.33497 4.54863 -15.3874
LeftUpLeg  -29.8075 -1.50144 -3.31112
LeftLeg  55.5997 -4.48171 15.7731
LeftFoot  -25.6156 -0.556355 -4.42027
LeftToes  5.79026e-011 9.70705e-012 -3.73859e-011
70
root  -7.90845 35.6992 44.2727 -0.546909 -10.5965 1.0744
RightUpLeg  -29.5876 -0.00303096 3.392
RightLeg  52.8647 13.5887 -4.20426
RightFoot  -22.2746 -0.121402 -2.48169
RightToes  -5.82073e-011 -3.18055e-015 -2.98177e-016
Spine  15.4134 -1.42681 4.83357
Spine1  -4.74744 -1.25278 2.83346
HEad  -25.3958 7.37135 -3.30416
LeftShoulder1  -3.88251e-019 9.70628e-020 -3.87848e-018
LeftArm  -28.039 53.5173 -67.3704
LeftForeArm  -13.6158 -16.2038 -0.530834
LeftHand  -1.0269 -2.7484 15.516
RightShoulder  7.59266 10.5349 35.848
RightArm  -2.66327 -42.0587 19.6169
RightForeArm  13.1922 7.83591 -7.51199
RightHand  -0.893063 3.87447 -11.252
LeftUpLeg  -27.5075 -1.37503 -3.08681
LeftLeg  50.7959 -4.08636 13.7966
LeftFoot  -21.8169 -0.300628 -3.08248
LeftToes  5.79026e-011 9.70705e-012 -3.73859e-011
71
root  -7.98175 37.0313 44.1473 0.42315 -10.1264 1.20128
RightUpLeg  -25.7214 -2.06115 3.21751
RightLeg  43.6339 14.485 -2.28967
RightFoot  -18.8169 -0.122045 -3.72688
RightToes  -5.82073e-011 -3.18055e-015 -2.98177e-016
Spine  13.3634 -0.990095 5.69522
Spine1  -5.21146 -0.500276 0.250721
HEad  -22.0838 4.69322 -2.53813
LeftShoulder1  -3.88251e-019 9.70628e-020 -3.87848e-018
LeftArm  -22.7011 54.4889 -71.1343
LeftForeArm  -17.0923 -22.0469 0.356377
LeftHand  -0.839946 -3.6147 11.6274
RightShoulder  7.44861 10.405 35.4072
RightArm  3.28365 -45.1077 18.5696
RightForeArm  16.0368 12.8384 -6.99342
RightHand  -1.16879 5.98434 -11.7719
LeftUpLeg  -23.9577 -0.749134 -3.10161
LeftLeg  41.6303 -3.39066 10.845
LeftFoot  -17.778 -0.111425 -1.64258
LeftToes  5.79026e-011 9.70705e-012 -3.73859e-011
72
root  -8.10085 38.4695 43.9885 1.5978 -9.90515 1.58903
RightUpLeg  -22.0609 -4.30169 3.10539
RightLeg  33.3446 16.4216 -0.528787
RightFoot  -12.7099 0.0482983 -3.6987
RightToes  -5.82073e-011 -3.18055e-015 -2.98177e-016
Spine  10.926 -0.293896 4.96014
Spine1  -5.05438 0.121469 -0.733295
HEad  -19.4791 2.33012 -1.79812
LeftShoulder1  -3.88251e-019 9.70628e-020 -3.87848e-018
LeftArm  -11.1501 56.2077 -74.2098
LeftForeArm  -15.9084 -29.442 5.29441
LeftHand  -0.738245 -6.64752 7.65151
RightShoulder  7.20326 10.2348 34.5298
RightArm  16.3783 -48.033 16.749
RightForeArm  13.984 20.001 -9.66576
RightHand  -1.88054 8.53205 -15.623
LeftUpLeg  -19.835 0.0709778 -3.32483
LeftLeg  30.531 -2.32019 8.17279
LeftFoot  -13.2503 -0.0244671 -3.40785
LeftToes  5.79026e-011 9.70705e-012 -3.73859e-011
73
root  -8.22196 39.623 43.8377 2.32207 -9.34696 1.64784
RightUpLeg  -18.1885 -5.81083 3.04798
RightLeg  23.7385 17.9248 0.709504
RightFoot  -5.93185 0.191858 -2.80379
RightToes  -5.82073e-011 -3.18055e-015 -2.98177e-016
Spine  8.35075 -0.0229539 4.31794
Spine1  -4.29235 0.303385 -0.977111
HEad  -16.8445 0.381097 -0.608929
LeftShoulder1  -3.88251e-019 9.70628e-020 -3.87848e-018
LeftArm  -7.25728 58.0061 -74.7571
LeftForeArm  -2.65577 -37.1031 8.44477
LeftHand  -0.571836 -9.78085 4.78216
RightShoulder  7.07953 10.2034 33.9583
RightArm  28.2948 -50.3577 14.3537
RightForeArm  7.95897 27.2816 -15.1417
RightHand  -2.28581 9.53464 -17.6785
LeftUpLeg  -15.4524 -0.323848 -3.04666
LeftLeg  20.7241 0.726548 6.9569
LeftFoot  -10.1721 0.161087 -7.81209
LeftToes  5.79026e-011 9.70705e-012 -3.73859e-011
74
root  -8.33488 40.2292 43.6909 2.77173 -8.164 1.22763
RightUpLeg  -14.5884 -2.95254 2.2249
RightLeg  16.0297 14.5968 1.45067
RightFoot  -1.63717 0.203134 -2.00795
RightToes  -5.82073e-011 -3.18055e-015 -2.98177e-016
Spine  5.82505 -0.236325 4.17305
Spine1  -3.39799 0.0762645 -1.11513
HEad  -13.8195 -1.25623 0.665325
LeftShoulder1  -3.88251e-019 9.70628e-020 -3.87848e-018
LeftArm  -2.46315 58.9137 -73.4522
LeftForeArm  5.49873 -44.6948 11.6316
LeftHand  -0.24221 -11.2601 2.0338
RightShoulder  7.06963 10.2433 33.8192
RightArm  33.3473 -51.5228 11.6876
RightForeArm  4.23417 34.9136 -19.3982
RightHand  -2.18655 9.76727 -16.6501
LeftUpLeg  -12.2672 -1.98078 -2.25281
LeftLeg  16.1802 5.2234 7.18412
LeftFoot  -10.845 0.172665 -10.1963
LeftToes  5.79026e-011 9.70705e-012 -3.73859e-011
75
root  -8.42058 40.3095 43.4493 2.99502 -6.68088 0.803275
RightUpLeg  -12.7453 -0.207744 2.03849
RightLeg  11.8073 10.9734 1.44333
RightFoot  -0.625563 0.160599 -1.49898
RightToes  -5.82073e-011 -3.18055e-015 -2.98177e-016
Spine  4.36622 -0.631795 3.69188
Spine1  -3.13892 -0.373643 -0.57618
HEad  -11.1798 -2.67872 1.49389
LeftShoulder1  -3.88251e-019 9.70628e-020 -3.87848e-018
LeftArm  2.48324 58.2163 -71.8791
LeftForeArm  5.04629 -50.8758 14.6294
LeftHand  0.0603035 -11.0703 -0.101138
RightShoulder  6.84098 10.1036 32.9246
RightArm  36.5771 -51.9743 10.939
RightForeArm  -1.2493 41.3967 -23.8989
RightHand  -1.94588 9.64298 -14.9798
LeftUpLeg  -10.9896 -2.44216 -1.66168
LeftLeg  17.6796 7.42772 8.44197
LeftFoot  -13.1312 -0.0376155 -9.14418
LeftToes  5.79026e-011 9.70705e-012 -3.73859e-011
76
root  -8.44882 40.026 43.049 2.51238 -5.35713 0.430922
RightUpLeg  -12.7319 -0.441544 2.53601
RightLeg  12.036 10.0438 1.1627
RightFoot  -1.95643 0.145311 -1.49679
RightToes  -5.82073e-011 -3.18055e-015 -2.98177e-016
Spine  4.91307 -1.03921 3.37895
Spine1  -3.62071 -0.783519 0.455404
HEad  -9.77338 -4.00934 2.18162
LeftShoulder1  -3.88251e-019 9.70628e-020 -3.87848e-018
LeftArm  6.36376 55.8344 -70.8969
LeftForeArm  -1.86171 -54.9363 16.6662
LeftHand  0.0109468 -9.97929 0.259486
RightShoulder  6.43955 9.84595 31.3495
RightArm  37.8829 -51.7787 12.1709
RightForeArm  -7.62888 46.8827 -28.5637
RightHand  -1.7987 9.11094 -14.3702
LeftUpLeg  -10.048 -0.734954 -1.15134
LeftLeg  21.8003 6.06141 9.58509
LeftFoot  -13.617 -0.0729235 -7.80614
LeftToes  5.79026e-011 9.70705e-012 -3.73859e-011
